# AST/ASF file generated using VICON BodyLanguage
# -----------------------------------------------
:version 1.10
:name VICON
:units
  mass 1.0
  length 0.45
  angle deg
:documentation
   .ast/.asf automatically generated from VICON data using
   VICON BodyBuilder and BodyLanguage model FoxedUp or BRILLIANT.MOD
:root
   order TX TY TZ RX RY RZ
   axis XYZ
   position 0 0 0  
   orientation 0 0 0 
:bonedata
  begin
     id 1 
     name lhipjoint
     direction 0.588788 -0.725889 0.355548 
     length 2.37778 
     axis 0 0 0  XYZ
  end
  begin
     id 2 
     name lfemur
     direction 0.34202 -0.939693 0  
     length 6.86393  
     axis 0 0 20  XYZ
    dof rx ry rz
    limits (-160.0 20.0)
           (-70.0 70.0)
           (-60.0 70.0)
  end
  begin
     id 3 
     name ltibia
     direction 0.34202 -0.939693 0   
     length 7.32851   
     axis 0 0 20   XYZ
    dof rx
    limits (-10.0 170.0)
  end
  begin
     id 4 
     name lfoot
     direction 0.0626533 -0.172138 0.983078   
     length 1.98929   
     axis -90 7.62852e-016 20   XYZ
    dof rx rz
    limits (-45.0 90.0)
           (-70.0 20.0)
  end
  begin
     id 5 
     name ltoes
     direction 1.53647e-011 -4.21734e-011 1   
     length 1.00479   
     axis -90 7.62852e-016 20   XYZ
    dof rx
    limits (-90.0 20.0)
  end
  begin
     id 6 
     name rhipjoint
     direction -0.59141 -0.724168 0.354705   
     length 2.38343  
     axis 0 0 0  XYZ 
  end
  begin
     id 7 
     name rfemur
     direction -0.34202 -0.939693 0   
     length 6.95589   
     axis 0 0 -20   XYZ
    dof rx ry rz
    limits (-160.0 20.0)
           (-70.0 70.0)
           (-70.0 60.0)
  end
  begin
     id 8 
     name rtibia
     direction -0.34202 -0.939693 0   
     length 7.32327   
     axis 0 0 -20   XYZ
    dof rx
    limits (-10.0 170.0)
 end
 begin
     id 9 
     name rfoot
     direction -0.0660461 -0.18146 0.981178   
     length 1.85272  
     axis -90 -7.62852e-016 -20   XYZ
    dof rx rz
    limits (-45.0 90.0)
           (-20.0 70.0)
  end
  begin
     id 10 
     name rtoes
     direction -1.53586e-011 -4.21988e-011 1   
     length 0.93746   
     axis -90 -7.62852e-016 -20   XYZ
    dof rx
    limits (-90.0 20.0)
  end
  begin
     id 11 
     name lowerback
     direction -0.0107982 0.991059 0.13299   
     length 1.98691   
     axis 0 0 0   XYZ
    dof rx ry rz
    limits (-20.0 45.0)
           (-30.0 30.0)
           (-30.0 30.0)
  end
  begin
     id 12 
     name upperback
     direction 0.0076296 0.999916 0.0104576   
     length 1.99501   
     axis 0 0 0   XYZ
    dof rx ry rz
    limits (-20.0 45.0)
           (-30.0 30.0)
           (-30.0 30.0)
  end
  begin
     id 13 
     name thorax
     direction 0.01176 0.998615 -0.0512909   
     length 2.03144   
     axis 0 0 0   XYZ
    dof rx ry rz
    limits (-20.0 45.0)
           (-30.0 30.0)
           (-30.0 30.0)
  end
  begin
     id 14 
     name lowerneck
     direction -0.0171909 0.999644 0.0204011   
     length 1.71818   
     axis 0 0 0   XYZ
    dof rx ry rz
    limits (-20.0 45.0)
           (-30.0 30.0)
           (-30.0 30.0)
  end
  begin
     id 15 
     name upperneck
     direction 0.0250902 0.997482 -0.0663316   
     length 1.66199   
     axis 0 0 0   XYZ
    dof rx ry rz
    limits (-20.0 45.0)
           (-30.0 30.0)
           (-30.0 30.0)
  end
  begin
     id 16
     name head
     direction 0.00881535 0.99956 -0.0283365  
     length 1.81545  
     axis 0 0 0   XYZ
    dof rx ry rz
    limits (-20.0 45.0)
           (-30.0 30.0)
           (-30.0 30.0)
  end
  begin
     id 17 
     name lclavicle
     direction 0.840411 0.486876 -0.238035  
     length 3.30409  
     axis 0 0 0   XYZ
    dof ry rz
    limits (-20.0 10.0)
           (0.0 20.0)
  end
  begin
     id 18 
     name lhumerus
     direction 1 -4.48977e-011 -5.16239e-027   
     length 4.62672   
     axis 180 -30 -90   XYZ
    dof rx ry rz
    limits (-60.0 90.0)
           (-90.0 90.0)
           (-90.0 90.0)
  end
  begin
     id 19
     name lradius
     direction 1 -4.48977e-011 -8.71171e-027   
     length 3.11018   
     axis 180 -30 -90   XYZ
    dof rx
    limits (-10.0 170.0)
  end
  begin
     id 20
     name lwrist
     direction 1 -4.48912e-011 -1.03764e-026   
     length 1.55509   
     axis 9.09556e-015 90 90   XYZ
    dof ry
    limits (-180.0 0.0)
 end
  begin
     id 21 
     name lhand
     direction 1 -4.49072e-011 -2.07528e-026   
     length 0.743834   
     axis 1.3242e-014 90 90   XYZ
    dof rx rz
    limits (-90.0 90.0)
           (-45.0 45.0)
  end
  begin
     id 22 
     name lfingers
     direction 1 -4.48909e-011 -4.15056e-026   
     length 0.599698   
     axis 2.64841e-014 90 90   XYZ
    dof rx
    limits (0.0 90.0)
  end
  begin
     id 23
     name lthumb
     direction 0.707107 -6.35013e-011 0.707107   
     length 0.86105   
     axis -90 45 2.85299e-015   XYZ
    dof rx rz
    limits (-45.0 45.0)
           (-45.0 45.0)
  end
  begin
     id 24 
     name rclavicle
     direction -0.835208 0.500237 -0.228452   
     length 3.2716  
     axis 0 0 0   XYZ 
    dof ry rz
    limits (-10.0 20.0)
           (-20.0 0.0)
  end
  begin
     id 25 
     name rhumerus
     direction -1 -4.48978e-011 -5.1953e-028  
     length 4.55919   
     axis 180 30 90   XYZ
    dof rx ry rz
    limits (-90.0 60.0)
           (-90.0 90.0)
           (-90.0 90.0)
  end
  begin
     id 26 
     name rradius
     direction -1 -4.48961e-011 -5.99546e-027   
     length 3.22748   
     axis 180 30 90   XYZ
    dof rx
    limits (-10.0 170.0)
  end
  begin
     id 27 
     name rwrist
     direction -1 -4.48986e-011 -1.03764e-026   
     length 1.61374   
     axis 9.09556e-015 -90 -90   XYZ
    dof ry
    limits (-180.0 0.0)
  end
  begin
     id 28
     name rhand
     direction -1 -4.4899e-011 -2.07528e-026   
     length 0.700882   
     axis 1.3242e-014 -90 -90   XYZ
    dof rx rz
    limits (-90.0 90.0)
           (-45.0 45.0)
  end
  begin
     id 29
     name rfingers
     direction -1 -4.48991e-011 -4.15056e-026   
     length 0.565069   
     axis 2.64841e-014 -90 -90   XYZ
    dof rx
    limits (0.0 90.0)
  end
  begin
     id 30
     name rthumb
     direction -0.707107 -6.34804e-011 0.707107   
     length 0.811329   
     axis -90 -45 -2.85299e-015   XYZ
    dof rx rz
    limits (-45.0 45.0)
           (-45.0 45.0)
  end
:hierarchy
  begin
    root lhipjoint rhipjoint lowerback
    lhipjoint lfemur
    lfemur ltibia
    ltibia lfoot
    lfoot ltoes
    rhipjoint rfemur
    rfemur rtibia
    rtibia rfoot
    rfoot rtoes
    lowerback upperback
    upperback thorax
    thorax lowerneck lclavicle rclavicle
    lowerneck upperneck
    upperneck head
    lclavicle lhumerus
    lhumerus lradius
    lradius lwrist
    lwrist lhand lthumb
    lhand lfingers
    rclavicle rhumerus
    rhumerus rradius
    rradius rwrist
    rwrist rhand rthumb
    rhand rfingers
  end

#!OML:ASF F:\VICON\USERDATA\INSTALL\SteveWalk\SteveWalk.ASF
:FULLY-SPECIFIED
:DEGREES
174
root -0.634688 16.1017 -9.32206 15.8378 -3.21825 5.28305
lowerback -14.5688 0.199542 -9.26007
upperback -5.03961 1.64902 -2.43966
thorax 2.60488 0.855879 2.91462
lowerneck -5.32661 -0.353689 0.607663
upperneck 8.45147 -0.757988 2.53011
head 3.69506 -0.246316 0.690954
rclavicle 4.18069e-014 -2.14687e-014
rhumerus -32.9498 -0.308306 -87.7763
rradius 50.9283
rwrist -16.0598
rhand -18.7351 -37.9148
rfingers 7.12502
rthumb 7.56083 -67.7597
lclavicle 4.18069e-014 -2.14687e-014
lhumerus -64.6514 35.9689 38.9876
lradius 11.4262
lwrist -43.6778
lhand -14.844 -18.4
lfingers 7.12502
lthumb 11.3152 11.2747
rfemur -13.94 -2.80397 13.4795
rtibia 60.0676
rfoot 22.4516 17.9751
rtoes -4.27952
lfemur -44.2209 0.96171 -30.2128
ltibia 36.2511
lfoot -8.3914 -4.53954
ltoes -0.635174
175
root -0.626198 16.1277 -9.1079 15.6614 -3.11506 5.80011
lowerback -14.4972 -0.00710074 -9.6423
upperback -4.9492 1.43738 -2.6703
thorax 2.68016 0.745435 2.84961
lowerneck -5.3197 -0.293152 0.654451
upperneck 8.44677 -0.699114 2.7325
head 3.69281 -0.20712 0.752518
rclavicle -1.06474e-014 3.97569e-015
rhumerus -33.613 -0.616154 -88.2823
rradius 49.7811
rwrist -16.7527
rhand -19.0826 -36.9989
rfingers 7.12502
rthumb 7.22543 -66.8556
lclavicle -1.06474e-014 3.97569e-015
lhumerus -62.8086 35.3048 41.4707
lradius 11.7305
lwrist -41.2708
lhand -14.946 -18.1138
lfingers 7.12502
lthumb 11.2169 11.5664
rfemur -15.3876 -3.19165 12.8353
rtibia 62.6498
rfoot 22.2313 17.4828
rtoes 0.879105
lfemur -43.0988 1.0418 -30.9282
ltibia 36.2157
lfoot -9.37335 -4.63292
ltoes -2.82929
176
root -0.621252 16.1613 -8.90322 15.5698 -3.23132 5.87352
lowerback -14.3635 -0.0876208 -9.69507
upperback -4.91125 1.32675 -2.73367
thorax 2.66145 0.689939 2.79258
lowerneck -5.40471 -0.245021 0.810817
upperneck 8.49883 -0.648951 2.70439
head 3.72619 -0.177218 0.718525
rclavicle -3.10601e-016 1.19271e-015
rhumerus -34.1453 -0.909134 -88.6398
rradius 48.4963
rwrist -17.4177
rhand -18.921 -36.0759
rfingers 7.12502
rthumb 7.38139 -65.9272
lclavicle -3.10601e-016 1.19271e-015
lhumerus -60.6165 34.2287 44.7453
lradius 12.2574
lwrist -38.3132
lhand -15.0143 -17.3487
lfingers 7.12502
lthumb 11.151 12.335
rfemur -17.1503 -3.26432 12.6886
rtibia 65.0862
rfoot 20.0896 16.5647
rtoes 0.418593
lfemur -42.1007 1.27762 -31.1021
ltibia 36.0944
lfoot -10.1643 -4.40716
ltoes -4.29656
177
root -0.611808 16.1885 -8.70592 15.5098 -3.28234 5.98533
lowerback -14.2486 -0.17311 -9.69739
upperback -4.85897 1.20577 -2.78511
thorax 2.67056 0.627643 2.71923
lowerneck -5.37425 -0.198107 0.786368
upperneck 8.42434 -0.584154 2.73572
head 3.6936 -0.145806 0.735835
rclavicle 4.36084e-015 -3.10104e-014
rhumerus -34.4945 -1.33121 -88.7582
rradius 47.1673
rwrist -17.1929
rhand -18.4132 -37.1772
rfingers 7.12502
rthumb 7.87156 -67.0107
lclavicle 4.36084e-015 -3.10104e-014
lhumerus -59.1359 33.9834 46.6028
lradius 12.5553
lwrist -36.7604
lhand -15.1942 -17.1799
lfingers 7.12502
lthumb 10.9775 12.5131
rfemur -18.952 -3.61999 12.5276
rtibia 67.3575
rfoot 17.2534 15.8691
rtoes -2.24442
lfemur -41.1109 1.32864 -31.2693
ltibia 35.9274
lfoot -10.877 -3.93687
ltoes -4.71423
178
root -0.601254 16.2155 -8.51 15.4544 -3.33542 6.20988
lowerback -14.2079 -0.267822 -9.74496
upperback -4.82726 1.08911 -2.90289
thorax 2.69709 0.567084 2.60254
lowerneck -5.16783 -0.141826 0.779622
upperneck 8.29213 -0.505225 2.78586
head 3.60622 -0.108059 0.755949
rclavicle 1.9456e-014 6.75868e-015
rhumerus -34.9763 -1.74886 -88.9556
rradius 45.9491
rwrist -17.1296
rhand -17.5766 -39.7502
rfingers 7.12502
rthumb 8.67898 -69.5518
lclavicle 1.9456e-014 6.75868e-015
lhumerus -57.7187 33.6899 48.2633
lradius 12.737
lwrist -35.4606
lhand -15.629 -17.2449
lfingers 7.12502
lthumb 10.558 12.4699
rfemur -20.7938 -4.12183 12.2751
rtibia 69.4948
rfoot 13.7764 14.9124
rtoes -7.09511
lfemur -40.1197 1.40752 -31.5965
ltibia 35.7617
lfoot -11.7128 -3.77411
ltoes -5.24649
179
root -0.59797 16.2436 -8.31973 15.4139 -3.38778 6.06287
lowerback -14.1102 -0.302649 -9.54707
upperback -4.8606 1.00059 -2.90024
thorax 2.62443 0.526206 2.48029
lowerneck -4.78645 -0.141067 0.91
upperneck 8.08512 -0.494017 2.68874
head 3.45835 -0.107916 0.699129
rclavicle -1.65861e-015 1.90833e-014
rhumerus -35.7388 -2.05087 -89.1942
rradius 44.964
rwrist -17.4755
rhand -17.0244 -40.9661
rfingers 7.12502
rthumb 9.21183 -70.7449
lclavicle -1.65861e-015 1.90833e-014
lhumerus -55.9017 32.7843 50.6946
lradius 13.0654
lwrist -33.6324
lhand -16.0352 -16.9857
lfingers 7.12502
lthumb 10.1662 12.7487
rfemur -22.7283 -4.26995 12.5238
rtibia 71.4507
rfoot 11.1405 13.0777
rtoes -9.7306
lfemur -39.2211 1.7063 -31.5323
ltibia 35.5856
lfoot -12.4275 -4.03914
ltoes -4.97217
180
root -0.59222 16.2691 -8.128 15.4112 -3.32996 5.87272
lowerback -14.0339 -0.357031 -9.29196
upperback -4.91842 0.877769 -2.8333
thorax 2.54069 0.469472 2.38896
lowerneck -4.54448 -0.13385 0.928031
upperneck 8.10345 -0.477675 2.64184
head 3.41729 -0.102747 0.680803
rclavicle -7.84578e-015 1.74931e-014
rhumerus -36.4393 -2.3501 -89.3107
rradius 43.7208
rwrist -17.8252
rhand -17.8577 -39.3238
rfingers 7.12502
rthumb 8.40765 -69.1364
lclavicle -7.84578e-015 1.74931e-014
lhumerus -54.0524 31.9842 53.0035
lradius 13.3028
lwrist -32.0585
lhand -16.2507 -16.6686
lfingers 7.12502
lthumb 9.95826 13.0758
rfemur -24.7201 -4.30479 12.8663
rtibia 73.172
rfoot 9.24284 10.9941
rtoes -9.94081
lfemur -38.3535 2.06623 -31.4529
ltibia 35.4327
lfoot -13.118 -4.29339
ltoes -5.13445
181
root -0.57898 16.2951 -7.93494 15.4511 -3.2244 5.7791
lowerback -13.9705 -0.437514 -9.01266
upperback -4.9819 0.720097 -2.78973
thorax 2.46171 0.394791 2.25433
lowerneck -4.61901 -0.0854903 0.775042
upperneck 8.3542 -0.417773 2.74547
head 3.51962 -0.0701166 0.746224
rclavicle 3.19919e-015 -2.34566e-014
rhumerus -36.9452 -2.70735 -89.2916
rradius 42.1096
rwrist -17.8495
rhand -19.1388 -36.2949
rfingers 7.12502
rthumb 7.17117 -66.1534
lclavicle 3.19919e-015 -2.34566e-014
lhumerus -52.2467 31.0267 55.3046
lradius 13.5121
lwrist -30.4326
lhand -16.6022 -17.2088
lfingers 7.12502
lthumb 9.61918 12.5515
rfemur -26.6376 -4.46588 13.1033
rtibia 74.5748
rfoot 7.1529 9.57449
rtoes -9.3264
lfemur -37.5297 2.19583 -31.435
ltibia 35.3484
lfoot -13.8132 -4.17622
ltoes -5.54641
182
root -0.566046 16.3212 -7.74292 15.4566 -3.03288 5.28684
lowerback -13.8405 -0.451721 -8.32574
upperback -5.08772 0.583048 -2.65717
thorax 2.30601 0.331622 1.98942
lowerneck -4.46252 -0.0807747 0.698406
upperneck 8.56133 -0.410547 2.77095
head 3.56188 -0.0667121 0.769388
rclavicle -1.3977e-015 8.74653e-015
rhumerus -37.6689 -3.21125 -89.1326
rradius 40.6881
rwrist -17.0077
rhand -19.9528 -35.243
rfingers 7.12502
rthumb 6.38542 -65.1268
lclavicle -1.3977e-015 8.74653e-015
lhumerus -50.8173 30.1962 57.0579
lradius 13.6813
lwrist -29.4676
lhand -16.9096 -18.089
lfingers 7.12502
lthumb 9.32254 11.6848
rfemur -28.342 -4.58892 13.8462
rtibia 75.5906
rfoot 5.18715 8.45507
rtoes -8.59816
lfemur -36.6961 1.9371 -30.8118
ltibia 35.3033
lfoot -14.353 -3.71736
ltoes -5.25072
183
root -0.558706 16.3412 -7.55475 15.4821 -2.74889 4.69386
lowerback -13.7195 -0.476209 -7.63361
upperback -5.18285 0.434947 -2.46287
thorax 2.16441 0.261285 1.78445
lowerneck -4.30129 -0.103187 0.674632
upperneck 8.81505 -0.440769 2.74608
head 3.61957 -0.0817652 0.765318
rclavicle -1.12313e-014 2.26615e-014
rhumerus -38.5302 -3.56485 -89.0878
rradius 39.5346
rwrist -16.526
rhand -20.1555 -35.7987
rfingers 7.12502
rthumb 6.1897 -65.6883
lclavicle -1.12313e-014 2.26615e-014
lhumerus -49.4813 29.8076 58.411
lradius 13.8529
lwrist -29.3684
lhand -17.0194 -18.2271
lfingers 7.12502
lthumb 9.2166 11.5514
rfemur -29.999 -4.72376 14.7844
rtibia 76.306
rfoot 3.53929 7.29033
rtoes -8.24052
lfemur -35.8818 1.68628 -30.0616
ltibia 35.2582
lfoot -14.8918 -3.31599
ltoes -5.45174
